<svg width="32" height="32" viewBox="0 0 32 32" fill="none" xmlns="http://www.w3.org/2000/svg">
<path d="M10.7512 16H12.7512V22H10.7512V16Z" fill="#26B04D"/>
<path d="M15.7512 15H17.7512V23H15.7512V15Z" fill="#26B04D"/>
<path d="M20.7512 16H22.7512V22H20.7512V16Z" fill="#26B04D"/>
<path d="M8.52968 25L7.00026 13H9.75117H11.7497L11.7512 11C11.7512 10.4304 11.837 8.08579 11.837 8.08579L21.7512 8C21.7512 8 21.7512 10.4393 21.7512 11H13.7512V13H23.7512V11V9C23.7512 6.79086 22.9603 6 20.7512 6H12.7512C10.542 6 9.75117 6.79086 9.75117 9V11H7.00026C5.80308 11 4.87408 12.0447 5.01396 13.2337L6.54337 25.2337C6.66187 26.2409 7.5155 27 8.52968 27H24.9727C25.9869 27 26.8405 26.2409 26.959 25.2337L28.4884 13.2337C28.6283 12.0447 27.6993 11 26.5021 11H25.7512V13H26.5021L24.9727 25H8.52968Z" fill="#26B04D"/>
</svg>
