<svg width="24" height="24" viewBox="0 0 24 24" fill="none" xmlns="http://www.w3.org/2000/svg">
<path fill-rule="evenodd" clip-rule="evenodd" d="M14.8851 3.63193C15.5634 3.3616 16.2897 3.2323 17.0196 3.25193C17.7495 3.27156 18.4678 3.4397 19.1306 3.7461C19.7932 4.0524 20.3865 4.49044 20.8742 5.03351C22.8421 7.21893 22.5095 10.5919 20.4807 12.6207L12.8839 20.2175C12.6495 20.4519 12.3315 20.5836 12 20.5836C11.6685 20.5836 11.3505 20.4519 11.1161 20.2175L3.32431 12.4257C2.80799 11.9093 2.40228 11.2932 2.13195 10.6149C1.86161 9.9366 1.73231 9.21032 1.75194 8.48039C1.77157 7.75045 1.93971 7.03217 2.24611 6.36937C2.55246 5.70668 2.9906 5.11333 3.5338 4.62554C5.71922 2.65787 9.09205 2.99062 11.1208 5.01934L12 5.89859L13.0743 4.82429C13.5906 4.30797 14.2068 3.90226 14.8851 3.63193ZM16.9927 4.25157C16.3986 4.23559 15.8074 4.34083 15.2553 4.56087C14.7032 4.78092 14.2017 5.11114 13.7814 5.5314C13.7814 5.5314 13.7814 5.5314 13.7814 5.5314L12.3536 6.95925C12.1583 7.15451 11.8417 7.15451 11.6464 6.95925L10.4136 5.72644C8.70924 4.02203 5.94058 3.80395 4.20269 5.36889C3.76045 5.76598 3.40321 6.24948 3.15382 6.78898C2.90442 7.32848 2.76756 7.91313 2.75158 8.50727C2.7356 9.10141 2.84085 9.69257 3.06089 10.2447C3.28093 10.7968 3.61115 11.2983 4.03141 11.7186C4.03142 11.7186 4.03141 11.7186 4.03141 11.7186L11.8232 19.5104C11.8701 19.5573 11.9337 19.5836 12 19.5836C12.0663 19.5836 12.1299 19.5573 12.1768 19.5104L19.7736 11.9136C21.478 10.2092 21.696 7.44057 20.1311 5.70268C19.734 5.26044 19.2505 4.9032 18.711 4.6538C18.1715 4.40441 17.5869 4.26754 16.9927 4.25157Z" fill="black"/>
</svg>
