<svg width="24" height="24" viewBox="0 0 24 24" fill="none" xmlns="http://www.w3.org/2000/svg">
<path fill-rule="evenodd" clip-rule="evenodd" d="M14.8851 3.63193C15.5634 3.3616 16.2897 3.2323 17.0196 3.25193C17.7495 3.27156 18.4678 3.4397 19.1306 3.7461C19.7932 4.0524 20.3865 4.49044 20.8742 5.03351C22.8421 7.21893 22.5095 10.5919 20.4807 12.6207L12.8839 20.2175C12.6495 20.4519 12.3315 20.5836 12 20.5836C11.6685 20.5836 11.3505 20.4519 11.1161 20.2175L3.32431 12.4257C2.80799 11.9093 2.40228 11.2932 2.13195 10.6149C1.86161 9.9366 1.73231 9.21032 1.75194 8.48039C1.77157 7.75045 1.93971 7.03217 2.24611 6.36937C2.55246 5.70668 2.9906 5.11333 3.5338 4.62554C5.71922 2.65787 9.09205 2.99062 11.1208 5.01934L12 5.89859L13.0743 4.82429C13.5906 4.30797 14.2068 3.90226 14.8851 3.63193Z" fill="#E44C4C"/>
</svg>
