<svg width="184" height="40" viewBox="0 0 184 40" fill="none" xmlns="http://www.w3.org/2000/svg">
<path d="M2.02271 32H6.94316V24.4545H11.0795C16.4318 24.4545 19.5454 21.2613 19.5454 16.6136C19.5454 11.9886 16.4886 8.72725 11.2045 8.72725H2.02271V32ZM6.94316 20.5113V12.75H10.2613C13.1023 12.75 14.4773 14.2954 14.4773 16.6136C14.4773 18.9204 13.1023 20.5113 10.2841 20.5113H6.94316Z" fill="black"/>
<path d="M21.6505 32H26.4915V22.125C26.4915 19.9773 28.0596 18.5 30.196 18.5C30.8665 18.5 31.7869 18.6136 32.2415 18.7613V14.4659C31.8096 14.3636 31.2074 14.2954 30.7187 14.2954C28.7642 14.2954 27.1619 15.4318 26.5255 17.5909H26.3437V14.5454H21.6505V32Z" fill="black"/>
<path d="M40.8182 32.3409C46.1136 32.3409 49.4091 28.7159 49.4091 23.3409C49.4091 17.9318 46.1136 14.3182 40.8182 14.3182C35.5227 14.3182 32.2272 17.9318 32.2272 23.3409C32.2272 28.7159 35.5227 32.3409 40.8182 32.3409ZM40.8409 28.5909C38.3977 28.5909 37.1477 26.3523 37.1477 23.3068C37.1477 20.2613 38.3977 18.0113 40.8409 18.0113C43.2386 18.0113 44.4886 20.2613 44.4886 23.3068C44.4886 26.3523 43.2386 28.5909 40.8409 28.5909Z" fill="black"/>
<path d="M51.5568 14.5454V32.7273C51.5568 34.0454 51 34.7045 49.4432 34.7045C49.2386 34.7045 49.0568 34.7045 48.8068 34.6818V38.4659C49.1818 38.4886 49.4432 38.4886 49.7045 38.4886C53.8977 38.6023 56.3977 36.8523 56.3977 32.8068V14.5454H51.5568ZM53.9659 12.2954C55.4091 12.2954 56.5909 11.1932 56.5909 9.84089C56.5909 8.49998 55.4091 7.39771 53.9659 7.39771C52.5341 7.39771 51.3522 8.49998 51.3522 9.84089C51.3522 11.1932 52.5341 12.2954 53.9659 12.2954Z" fill="black"/>
<path d="M67.2301 32.3409C71.5483 32.3409 74.4574 30.2386 75.1392 27L70.6619 26.7045C70.1733 28.0341 68.9233 28.7273 67.3096 28.7273C64.8892 28.7273 63.3551 27.125 63.3551 24.5227V24.5113H75.2415V23.1818C75.2415 17.25 71.6506 14.3182 67.0369 14.3182C61.9005 14.3182 58.571 17.9659 58.571 23.3523C58.571 28.8863 61.8551 32.3409 67.2301 32.3409ZM63.3551 21.5113C63.4574 19.5227 64.9687 17.9318 67.1165 17.9318C69.2187 17.9318 70.6733 19.4318 70.6846 21.5113H63.3551Z" fill="black"/>
<path d="M85.2869 32.3409C89.9346 32.3409 92.8551 29.6136 93.0824 25.6023H88.5142C88.2301 27.4659 87.0028 28.5113 85.3437 28.5113C83.0824 28.5113 81.6165 26.6136 81.6165 23.2727C81.6165 19.9773 83.0937 18.0909 85.3437 18.0909C87.1165 18.0909 88.2528 19.2613 88.5142 21H93.0824C92.8778 16.9659 89.821 14.3182 85.2642 14.3182C79.9687 14.3182 76.696 17.9886 76.696 23.3409C76.696 28.6477 79.9119 32.3409 85.2869 32.3409Z" fill="black"/>
<path d="M104.466 14.5454H101.182V10.3636H96.3409V14.5454H93.9545V18.1818H96.3409V27.2727C96.3182 30.6932 98.6477 32.3863 102.159 32.2386C103.409 32.1932 104.295 31.9432 104.784 31.7841L104.023 28.1818C103.784 28.2273 103.273 28.3409 102.818 28.3409C101.852 28.3409 101.182 27.9773 101.182 26.6363V18.1818H104.466V14.5454Z" fill="black"/>
<path d="M109.449 32.2954C110.903 32.2954 112.165 31.0795 112.176 29.5682C112.165 28.0795 110.903 26.8636 109.449 26.8636C107.949 26.8636 106.71 28.0795 106.722 29.5682C106.71 31.0795 107.949 32.2954 109.449 32.2954Z" fill="black"/>
<path d="M123.037 32.3409C127.685 32.3409 130.605 29.6136 130.832 25.6023H126.264C125.98 27.4659 124.753 28.5113 123.094 28.5113C120.832 28.5113 119.366 26.6136 119.366 23.2727C119.366 19.9773 120.844 18.0909 123.094 18.0909C124.866 18.0909 126.003 19.2613 126.264 21H130.832C130.628 16.9659 127.571 14.3182 123.014 14.3182C117.719 14.3182 114.446 17.9886 114.446 23.3409C114.446 28.6477 117.662 32.3409 123.037 32.3409Z" fill="black"/>
<path d="M140.818 32.3409C146.114 32.3409 149.409 28.7159 149.409 23.3409C149.409 17.9318 146.114 14.3182 140.818 14.3182C135.523 14.3182 132.227 17.9318 132.227 23.3409C132.227 28.7159 135.523 32.3409 140.818 32.3409ZM140.841 28.5909C138.398 28.5909 137.148 26.3523 137.148 23.3068C137.148 20.2613 138.398 18.0113 140.841 18.0113C143.239 18.0113 144.489 20.2613 144.489 23.3068C144.489 26.3523 143.239 28.5909 140.841 28.5909Z" fill="black"/>
<path d="M151.557 32H156.398V21.5227C156.398 19.5909 157.625 18.3068 159.239 18.3068C160.83 18.3068 161.898 19.3977 161.898 21.1136V32H166.591V21.3409C166.591 19.5341 167.625 18.3068 169.386 18.3068C170.932 18.3068 172.091 19.2727 172.091 21.2159V32H176.92V20.2613C176.92 16.4773 174.67 14.3182 171.42 14.3182C168.864 14.3182 166.875 15.625 166.159 17.625H165.977C165.42 15.6023 163.636 14.3182 161.239 14.3182C158.886 14.3182 157.102 15.5682 156.375 17.625H156.17V14.5454H151.557V32Z" fill="black"/>
</svg>
